<svg width="1413" height="572" viewBox="0 0 1413 572" fill="none" xmlns="http://www.w3.org/2000/svg">
<path d="M716.4 481.8C698.533 481.8 682.667 479.4 668.8 474.6C654.933 470.067 644.133 463.267 636.4 454.2C628.667 445.4 624.8 434.6 624.8 421.8C624.8 415.933 626 409.933 628.4 403.8C631.067 397.667 635.467 391.667 641.6 385.8C648 379.667 656.933 373.933 668.4 368.6L690.8 382.2C677.2 388.067 668.267 394.2 664 400.6C659.733 407 657.6 414.067 657.6 421.8C657.6 428.733 659.733 434.733 664 439.8C668.533 445.133 675.2 449.133 684 451.8C692.8 454.467 703.6 455.8 716.4 455.8C729.467 455.8 740 454.2 748 451C756 447.8 761.867 443.4 765.6 437.8C769.333 432.2 771.2 425.8 771.2 418.6C771.2 410.067 767.733 403.267 760.8 398.2C754.133 393.4 741.333 390.467 722.4 389.4C706.667 388.333 693.467 386.867 682.8 385C672.4 383.133 663.733 381 656.8 378.6C649.867 375.933 644 373 639.2 369.8C634.667 366.6 630.533 363.267 626.8 359.8V350.6L665.6 311.8L684.8 321.4L654.8 358.6L657.6 345C660 346.6 662.533 348.2 665.2 349.8C668.133 351.4 672.133 353 677.2 354.6C682.267 355.933 688.933 357.267 697.2 358.6C705.733 359.933 716.667 361.133 730 362.2C747.867 363.533 762.267 366.467 773.2 371C784.133 375.267 792 381.267 796.8 389C801.867 396.733 804.4 406.2 804.4 417.4C804.4 427.533 801.2 437.533 794.8 447.4C788.667 457.267 779.067 465.4 766 471.8C753.2 478.467 736.667 481.8 716.4 481.8ZM716 334.6C699.2 334.6 684.933 331.533 673.2 325.4C661.467 319 652.533 310.467 646.4 299.8C640.267 289.133 637.2 277.267 637.2 264.2C637.2 251.133 640.267 239.4 646.4 229C652.533 218.333 661.467 209.8 673.2 203.4C684.933 197 699.2 193.8 716 193.8C732.8 193.8 747.067 197 758.8 203.4C770.533 209.8 779.467 218.333 785.6 229C791.733 239.4 794.8 251.133 794.8 264.2C794.8 277.267 791.733 289.133 785.6 299.8C779.467 310.467 770.533 319 758.8 325.4C747.067 331.533 732.8 334.6 716 334.6ZM716 309C730.133 309 741.333 305.267 749.6 297.8C758.133 290.067 762.4 278.867 762.4 264.2C762.4 249.267 758.133 238.067 749.6 230.6C741.333 223.133 730.133 219.4 716 219.4C701.867 219.4 690.533 223.133 682 230.6C673.467 238.067 669.2 249.267 669.2 264.2C669.2 278.867 673.467 290.067 682 297.8C690.533 305.267 701.867 309 716 309ZM748 223L738 198.6H820.4V217L748 223ZM920.703 401.8C905.503 401.8 892.17 398.733 880.703 392.6C869.503 386.2 860.703 376.6 854.303 363.8C847.903 350.733 844.703 334.333 844.703 314.6V198.6H878.303V311C878.303 331.533 882.703 347 891.503 357.4C900.303 367.8 912.97 373 929.503 373C940.97 373 951.103 370.2 959.903 364.6C968.97 359 976.036 350.867 981.103 340.2C986.436 329.533 989.103 316.6 989.103 301.4V198.6H1022.7V397H993.103L989.903 365.8H988.303C981.636 376.467 972.57 385.133 961.103 391.8C949.903 398.467 936.436 401.8 920.703 401.8ZM1056.52 397V117H1090.12V397H1056.52ZM1126.05 477V198.6H1154.05L1157.25 236.6H1158.85C1164.71 227 1171.65 219.133 1179.65 213C1187.65 206.6 1196.45 201.8 1206.05 198.6C1215.91 195.4 1226.18 193.8 1236.85 193.8C1256.05 193.8 1272.58 198.467 1286.45 207.8C1300.58 216.867 1311.38 229.267 1318.85 245C1326.58 260.733 1330.45 278.333 1330.45 297.8C1330.45 317.267 1326.58 334.867 1318.85 350.6C1311.38 366.333 1300.31 378.867 1285.65 388.2C1271.25 397.267 1253.51 401.8 1232.45 401.8C1214.05 401.8 1198.85 397.933 1186.85 390.2C1175.11 382.467 1166.05 373.8 1159.65 364.2V477H1126.05ZM1228.85 372.6C1242.71 372.6 1254.71 369.533 1264.85 363.4C1274.98 357 1282.71 348.2 1288.05 337C1293.65 325.8 1296.45 312.733 1296.45 297.8C1296.45 282.867 1293.65 269.8 1288.05 258.6C1282.71 247.4 1274.98 238.733 1264.85 232.6C1254.71 226.2 1242.71 223 1228.85 223C1214.98 223 1202.85 226.2 1192.45 232.6C1182.31 238.733 1174.45 247.4 1168.85 258.6C1163.25 269.8 1160.45 282.867 1160.45 297.8C1160.45 312.733 1163.25 325.8 1168.85 337C1174.45 348.2 1182.31 357 1192.45 363.4C1202.85 369.533 1214.98 372.6 1228.85 372.6Z" fill="white"/>
<path d="M1376.87 399C1370.74 399 1365.4 396.867 1360.87 392.6C1356.6 388.067 1354.47 382.733 1354.47 376.6C1354.47 370.467 1356.6 365.267 1360.87 361C1365.4 356.733 1370.74 354.6 1376.87 354.6C1383 354.6 1388.2 356.733 1392.47 361C1396.74 365.267 1398.87 370.467 1398.87 376.6C1398.87 382.733 1396.74 388.067 1392.47 392.6C1388.2 396.867 1383 399 1376.87 399Z" fill="#F7CE45"/>
<circle cx="275" cy="286" r="275" fill="white"/>
<path d="M218.175 477.946C234.26 480.651 253.923 482.796 277.164 484.371C306.414 486.019 326.189 490.551 336.488 497.967C347.2 505.794 352.556 516.299 352.556 529.483C352.556 537.309 351.125 544.523 348.27 551.125C324.942 557.558 300.373 561 275 561C240.81 561 208.077 554.758 177.878 543.355C177.327 540.5 177.05 537.523 177.05 534.427C177.05 522.479 180.346 511.561 186.938 501.674C192.4 493.481 202.813 485.573 218.175 477.946Z" fill="#F7CE45"/>
<path d="M275 11C426.878 11 550 134.122 550 286C550 391.326 490.786 482.818 403.834 529.012C403.842 528.551 403.849 528.091 403.849 527.63C403.849 510.326 399.934 495.7 392.106 483.753C384.691 471.805 372.538 462.536 355.646 455.944C338.755 448.94 316.507 444.409 288.904 442.349C268.305 440.701 251.414 438.846 238.231 436.786C225.459 434.726 215.159 432.666 207.332 430.606C199.504 428.134 193.324 425.663 188.792 423.191C187.635 422.496 186.494 421.8 185.369 421.106L210.577 389.848C226.763 396.419 245.661 399.707 267.275 399.707C293.23 399.707 315.271 394.97 333.399 385.495C351.526 375.607 365.327 362.423 374.803 345.944C384.278 329.464 389.017 311.131 389.017 290.944C389.017 270.757 384.278 252.629 374.803 236.562C372.094 231.851 369.032 227.41 365.616 223.238L428.568 218.022V189.595H316.446C302.011 184.655 285.622 182.179 267.275 182.179C241.32 182.179 219.279 187.124 201.152 197.012C183.025 206.899 169.223 220.083 159.748 236.562C150.272 252.629 145.534 270.757 145.534 290.944C145.534 311.131 150.272 329.464 159.748 345.944C165.476 355.906 172.787 364.66 181.677 372.214L129.466 424.426V438.64C135.234 443.996 141.62 449.146 148.624 454.09C154.608 458.079 161.666 461.8 169.797 465.253C163.025 469.621 157.203 474.14 152.331 478.809C142.855 487.872 136.059 497.142 131.939 506.618C130.363 510.645 129.124 514.635 128.218 518.588C51.1676 469.861 0 383.907 0 286C0 134.122 123.122 11 275 11Z" fill="#F7CE45"/>
<path d="M267.275 221.731C289.11 221.731 306.413 227.498 319.185 239.033C332.368 250.569 338.961 267.873 338.961 290.944C338.961 313.603 332.368 330.906 319.185 342.854C306.413 354.389 289.11 360.157 267.275 360.157C245.44 360.157 227.931 354.389 214.747 342.854C201.564 330.906 194.972 313.603 194.972 290.944C194.972 267.873 201.564 250.569 214.747 239.033C227.931 227.498 245.44 221.731 267.275 221.731Z" fill="#F7CE45"/>
</svg>
