<svg width="592" height="592" viewBox="0 0 592 592" fill="none" xmlns="http://www.w3.org/2000/svg">
<circle cx="296" cy="296" r="296" fill="#16171B"/>
<path d="M234.836 502.603C252.149 505.516 273.313 507.824 298.329 509.52C329.813 511.294 351.098 516.171 362.184 524.153C373.713 532.578 379.479 543.886 379.479 558.076C379.479 566.5 377.939 574.264 374.865 581.371C349.756 588.295 323.311 592 296 592C259.199 592 223.967 585.281 191.462 573.008C190.869 569.934 190.57 566.731 190.57 563.397C190.57 550.538 194.118 538.786 201.213 528.143C207.093 519.325 218.301 510.813 234.836 502.603Z" fill="#F7CE45"/>
<path d="M296 0C459.476 0 592 132.524 592 296C592 409.369 528.264 507.848 434.672 557.569C434.681 557.073 434.688 556.578 434.688 556.082C434.688 537.457 430.475 521.714 422.049 508.854C414.067 495.994 400.986 486.016 382.805 478.921C364.624 471.383 340.677 466.505 310.966 464.288C288.794 462.514 270.613 460.518 256.423 458.3C242.676 456.083 231.59 453.866 223.164 451.649C214.739 448.988 208.087 446.328 203.209 443.667C201.963 442.919 200.736 442.17 199.525 441.423L226.657 407.778C244.079 414.851 264.421 418.39 287.685 418.39C315.622 418.39 339.347 413.292 358.858 403.093C378.37 392.45 393.225 378.259 403.424 360.521C413.623 342.783 418.723 323.05 418.723 301.322C418.723 279.593 413.623 260.081 403.424 242.787C400.509 237.716 397.212 232.936 393.536 228.445L461.295 222.831V192.233H340.611C325.074 186.916 307.433 184.251 287.685 184.251C259.748 184.251 236.024 189.574 216.513 200.216C197.001 210.859 182.146 225.049 171.947 242.787C161.747 260.081 156.648 279.593 156.648 301.322C156.648 323.05 161.748 342.783 171.947 360.521C178.112 371.244 185.982 380.667 195.551 388.797L139.352 444.997V460.296C145.561 466.061 152.435 471.604 159.973 476.926C166.415 481.22 174.012 485.224 182.764 488.941C175.475 493.643 169.207 498.507 163.963 503.532C153.764 513.288 146.449 523.266 142.014 533.465C140.318 537.799 138.985 542.095 138.009 546.349C55.0749 493.901 0 401.384 0 296C0 132.524 132.524 0 296 0Z" fill="#F7CE45"/>
<path d="M287.685 226.823C311.188 226.823 329.812 233.03 343.559 245.447C357.749 257.863 364.846 276.489 364.846 301.322C364.846 325.711 357.749 344.335 343.559 357.195C329.812 369.612 311.188 375.82 287.685 375.82C264.183 375.82 245.336 369.612 231.146 357.195C216.956 344.335 209.861 325.711 209.861 301.322C209.861 276.489 216.956 257.863 231.146 245.447C245.336 233.03 264.183 226.823 287.685 226.823Z" fill="#F7CE45"/>
</svg>
