<svg width="775" height="365" viewBox="0 0 775 365" fill="none" xmlns="http://www.w3.org/2000/svg">
<path d="M91.5992 364.8C73.7326 364.8 57.8659 362.4 43.9992 357.6C30.1326 353.067 19.3326 346.267 11.5992 337.2C3.86589 328.4 -0.000781059 317.6 -0.000781059 304.8C-0.000781059 298.933 1.19922 292.933 3.59922 286.8C6.26589 280.667 10.6659 274.667 16.7992 268.8C23.1992 262.667 32.1326 256.933 43.5992 251.6L65.9992 265.2C52.3992 271.067 43.4659 277.2 39.1992 283.6C34.9326 290 32.7992 297.067 32.7992 304.8C32.7992 311.733 34.9326 317.733 39.1992 322.8C43.7326 328.133 50.3992 332.133 59.1992 334.8C67.9992 337.467 78.7992 338.8 91.5992 338.8C104.666 338.8 115.199 337.2 123.199 334C131.199 330.8 137.066 326.4 140.799 320.8C144.533 315.2 146.399 308.8 146.399 301.6C146.399 293.067 142.933 286.267 135.999 281.2C129.333 276.4 116.533 273.467 97.5992 272.4C81.8659 271.333 68.6659 269.867 57.9992 268C47.5992 266.133 38.9326 264 31.9992 261.6C25.0659 258.933 19.1992 256 14.3992 252.8C9.86589 249.6 5.73255 246.267 1.99922 242.8V233.6L40.7992 194.8L59.9992 204.4L29.9992 241.6L32.7992 228C35.1992 229.6 37.7326 231.2 40.3992 232.8C43.3326 234.4 47.3326 236 52.3992 237.6C57.4659 238.933 64.1326 240.267 72.3992 241.6C80.9326 242.933 91.8659 244.133 105.199 245.2C123.066 246.533 137.466 249.467 148.399 254C159.333 258.267 167.199 264.267 171.999 272C177.066 279.733 179.599 289.2 179.599 300.4C179.599 310.533 176.399 320.533 169.999 330.4C163.866 340.267 154.266 348.4 141.199 354.8C128.399 361.467 111.866 364.8 91.5992 364.8ZM91.1992 217.6C74.3992 217.6 60.1326 214.533 48.3992 208.4C36.6659 202 27.7326 193.467 21.5992 182.8C15.4659 172.133 12.3992 160.267 12.3992 147.2C12.3992 134.133 15.4659 122.4 21.5992 112C27.7326 101.333 36.6659 92.8 48.3992 86.4C60.1326 80 74.3992 76.8 91.1992 76.8C107.999 76.8 122.266 80 133.999 86.4C145.733 92.8 154.666 101.333 160.799 112C166.933 122.4 169.999 134.133 169.999 147.2C169.999 160.267 166.933 172.133 160.799 182.8C154.666 193.467 145.733 202 133.999 208.4C122.266 214.533 107.999 217.6 91.1992 217.6ZM91.1992 192C105.333 192 116.533 188.267 124.799 180.8C133.333 173.067 137.599 161.867 137.599 147.2C137.599 132.267 133.333 121.067 124.799 113.6C116.533 106.133 105.333 102.4 91.1992 102.4C77.0659 102.4 65.7326 106.133 57.1992 113.6C48.6659 121.067 44.3992 132.267 44.3992 147.2C44.3992 161.867 48.6659 173.067 57.1992 180.8C65.7326 188.267 77.0659 192 91.1992 192ZM123.199 106L113.199 81.6H195.599V100L123.199 106ZM295.902 284.8C280.702 284.8 267.369 281.733 255.902 275.6C244.702 269.2 235.902 259.6 229.502 246.8C223.102 233.733 219.902 217.333 219.902 197.6V81.6H253.502V194C253.502 214.533 257.902 230 266.702 240.4C275.502 250.8 288.169 256 304.702 256C316.169 256 326.302 253.2 335.102 247.6C344.169 242 351.236 233.867 356.302 223.2C361.636 212.533 364.302 199.6 364.302 184.4V81.6H397.902V280H368.302L365.102 248.8H363.502C356.836 259.467 347.769 268.133 336.302 274.8C325.102 281.467 311.636 284.8 295.902 284.8ZM431.715 280V-1.90735e-05H465.315V280H431.715ZM501.246 360V81.6H529.246L532.446 119.6H534.046C539.913 110 546.846 102.133 554.846 96C562.846 89.6 571.646 84.8 581.246 81.6C591.113 78.4 601.379 76.8 612.046 76.8C631.246 76.8 647.779 81.4667 661.646 90.8C675.779 99.8667 686.579 112.267 694.046 128C701.779 143.733 705.646 161.333 705.646 180.8C705.646 200.267 701.779 217.867 694.046 233.6C686.579 249.333 675.513 261.867 660.846 271.2C646.446 280.267 628.713 284.8 607.646 284.8C589.246 284.8 574.046 280.933 562.046 273.2C550.313 265.467 541.246 256.8 534.846 247.2V360H501.246ZM604.046 255.6C617.913 255.6 629.913 252.533 640.046 246.4C650.179 240 657.913 231.2 663.246 220C668.846 208.8 671.646 195.733 671.646 180.8C671.646 165.867 668.846 152.8 663.246 141.6C657.913 130.4 650.179 121.733 640.046 115.6C629.913 109.2 617.913 106 604.046 106C590.179 106 578.046 109.2 567.646 115.6C557.513 121.733 549.646 130.4 544.046 141.6C538.446 152.8 535.646 165.867 535.646 180.8C535.646 195.733 538.446 208.8 544.046 220C549.646 231.2 557.513 240 567.646 246.4C578.046 252.533 590.179 255.6 604.046 255.6Z" fill="white"/>
<path d="M752.068 282C745.935 282 740.601 279.867 736.068 275.6C731.801 271.067 729.668 265.733 729.668 259.6C729.668 253.467 731.801 248.267 736.068 244C740.601 239.733 745.935 237.6 752.068 237.6C758.201 237.6 763.401 239.733 767.668 244C771.935 248.267 774.068 253.467 774.068 259.6C774.068 265.733 771.935 271.067 767.668 275.6C763.401 279.867 758.201 282 752.068 282Z" fill="#F7CE45"/>
</svg>
